<?xml version="1.0" encoding="utf-8"?>
<!-- Generator: Adobe Illustrator 19.0.0, SVG Export Plug-In . SVG Version: 6.00 Build 0)  -->
<svg version="1.1" id="Layer_1" xmlns="http://www.w3.org/2000/svg" xmlns:xlink="http://www.w3.org/1999/xlink" x="0px" y="0px"
	 viewBox="0 0 509 434" style="enable-background:new 0 0 509 434;" xml:space="preserve">
<style type="text/css">
	.st0{fill:none;stroke:url(#SVGID_1_);stroke-width:20;stroke-miterlimit:10;}
	.st1{fill:url(#SVGID_2_);}
	.st2{fill:url(#SVGID_3_);}
	.st3{fill:url(#SVGID_4_);}
</style>
<linearGradient id="SVGID_1_" gradientUnits="userSpaceOnUse" x1="17" y1="214.5" x2="450" y2="214.5">
	<stop  offset="0" style="stop-color:#00796B"/>
	<stop  offset="0.9694" style="stop-color:#000000"/>
</linearGradient>
<path class="st0" d="M440,66c0-15.5-10-28-22.3-28h0.3H49h0.3C37,38,27,50.5,27,66v297c0,15.5,10,28,22.3,28H49h369h-0.3
	c12.3,0,22.3-12.5,22.3-28"/>
<g>
	<linearGradient id="SVGID_2_" gradientUnits="userSpaceOnUse" x1="54.8516" y1="219.0791" x2="201.3779" y2="219.0791">
		<stop  offset="0" style="stop-color:#00796B"/>
		<stop  offset="1" style="stop-color:#0E554D"/>
	</linearGradient>
	<path class="st1" d="M55.7,315.3l58.6-202.1c2.3-7.3,7.2-11,14.7-11c7.2,0,11.8,3.1,13.7,9.3l58,205.1c0.5,1.5,0.7,3,0.7,4.4
		c0,4.1-1.4,7.6-4.2,10.5c-2.8,2.9-5.9,4.3-9.5,4.3c-7.6,0-12.5-3.6-14.5-10.7l-11.5-40.1H95L82.4,328c-0.3,1.9-1.8,3.6-4.4,5.3
		c-2.6,1.7-5.3,2.5-8.4,2.5c-4.3,0-7.8-1.5-10.6-4.4c-2.8-2.9-4.2-6.5-4.2-10.7C54.9,319,55.1,317.2,55.7,315.3z M128.8,170.7
		l-25,84.5h49.2L128.8,170.7z"/>
</g>
<g>
	<linearGradient id="SVGID_3_" gradientUnits="userSpaceOnUse" x1="213.0337" y1="251.0698" x2="362.2656" y2="251.0698">
		<stop  offset="0" style="stop-color:#0E554D"/>
		<stop  offset="1" style="stop-color:#1B3532"/>
	</linearGradient>
	<path class="st2" d="M362.3,181v28.1L311,325.6c-3.3,6.9-7.6,10.3-13,10.3h-19c-6.9,0-12-3.6-15.1-10.8L213,209.5V181
		c0-4.1,1.4-7.6,4.3-10.5c2.9-2.9,6.4-4.3,10.5-4.3c4.1,0,7.6,1.4,10.5,4.3c2.9,2.9,4.3,6.3,4.3,10.4l0.1,22.6l45,101.3l44.7-101.6
		l0-22.3c0-4.1,1.5-7.6,4.4-10.5c2.9-2.9,6.5-4.3,10.7-4.3c4.1,0,7.6,1.4,10.5,4.3C360.8,173.4,362.3,176.9,362.3,181z"/>
</g>
<g>
	<linearGradient id="SVGID_4_" gradientUnits="userSpaceOnUse" x1="383.7988" y1="212.3997" x2="503.3242" y2="212.3997">
		<stop  offset="0" style="stop-color:#1B3532"/>
		<stop  offset="0.9388" style="stop-color:#000000"/>
	</linearGradient>
	<path class="st3" d="M488.6,335.5h-90c-4.1,0-7.6-1.4-10.5-4.3c-2.9-2.9-4.3-6.4-4.3-10.5c0-4,1.4-7.4,4.3-10.4
		c2.9-2.9,6.4-4.4,10.5-4.4h30.2V195.8h-29.9c-4.1,0-7.6-1.5-10.5-4.4c-2.9-2.9-4.3-6.4-4.3-10.4c0-4.1,1.4-7.6,4.3-10.6
		c2.9-3,6.4-4.5,10.5-4.5h45c4.1,0,7.6,1.5,10.5,4.5c2.9,3,4.3,6.5,4.3,10.6v125h29.5c4.1,0,7.6,1.4,10.6,4.3
		c3,2.9,4.5,6.4,4.5,10.5c0,4.1-1.5,7.6-4.4,10.5C496,334.1,492.5,335.5,488.6,335.5z M428.4,89.3h15.5c4.1,0,7.6,1.4,10.5,4.3
		c2.9,2.9,4.3,6.4,4.3,10.5v12.7c0,4.1-1.4,7.6-4.3,10.6c-2.9,3-6.4,4.5-10.5,4.5h-15.8c-4.2,0-7.8-1.5-10.6-4.6
		c-2.9-3-4.2-6.4-4.1-10.2l0.4-13c0-4.1,1.4-7.6,4.3-10.5C420.9,90.7,424.3,89.3,428.4,89.3z"/>
</g>
<g>
</g>
<g>
</g>
<g>
</g>
<g>
</g>
<g>
</g>
<g>
</g>
<g>
</g>
<g>
</g>
<g>
</g>
<g>
</g>
<g>
</g>
<g>
</g>
<g>
</g>
<g>
</g>
<g>
</g>
</svg>
