<svg width="72" height="72" viewBox="0 0 72 72" fill="none" xmlns="http://www.w3.org/2000/svg">
<path d="M36 24C39.3137 24 42 21.3137 42 18C42 14.6863 39.3137 12 36 12C32.6863 12 30 14.6863 30 18C30 21.3137 32.6863 24 36 24Z" fill="#00695C"/>
<path d="M63 48V42C56.28 42 50.52 39.12 46.2 33.96L42.18 29.16C41.04 27.78 39.36 27 37.59 27H34.44C32.67 27 30.99 27.78 29.85 29.16L25.83 33.96C21.48 39.12 15.72 42 9 42V48C17.31 48 24.57 44.49 30 38.25V45L18.36 49.65C16.35 50.46 15 52.44 15 54.63C15 57.6 17.4 60 20.37 60H27V58.5C27 54.36 30.36 51 34.5 51H43.5C44.34 51 45 51.66 45 52.5C45 53.34 44.34 54 43.5 54H34.5C32.01 54 30 56.01 30 58.5V60H51.63C54.6 60 57 57.6 57 54.63C57 52.44 55.65 50.46 53.64 49.65L42 45V38.25C47.43 44.49 54.69 48 63 48Z" fill="#00695C"/>
</svg>
