<svg width="128" height="128" viewBox="0 0 128 128" fill="none" xmlns="http://www.w3.org/2000/svg">
<rect width="128" height="128" rx="64" fill="#048777" fill-opacity="0.75"/>
<g filter="url(#filter0_d)">
<path d="M115.093 85.8133L109.28 44.96C107.787 34.4533 98.7733 26.6666 88.16 26.6666H39.84C29.2267 26.6666 20.2133 34.4533 18.72 44.96L12.9067 85.8133C11.7333 94.0266 18.08 101.333 26.3467 101.333C29.9733 101.333 33.3867 99.8933 35.9467 97.3333L48 85.3333H80L92 97.3333C94.56 99.8933 98.0267 101.333 101.6 101.333C109.92 101.333 116.267 94.0266 115.093 85.8133ZM58.6667 58.6666H48V69.3333H42.6667V58.6666H32V53.3333H42.6667V42.6666H48V53.3333H58.6667V58.6666ZM80 53.3333C77.0667 53.3333 74.6667 50.9333 74.6667 48C74.6667 45.0666 77.0667 42.6666 80 42.6666C82.9333 42.6666 85.3333 45.0666 85.3333 48C85.3333 50.9333 82.9333 53.3333 80 53.3333ZM90.6667 69.3333C87.7333 69.3333 85.3333 66.9333 85.3333 64C85.3333 61.0666 87.7333 58.6666 90.6667 58.6666C93.6 58.6666 96 61.0666 96 64C96 66.9333 93.6 69.3333 90.6667 69.3333Z" fill="#EB5757"/>
<path d="M48 54.3333H57.6667V57.6666H48H47V58.6666V68.3333H43.6667V58.6666V57.6666H42.6667H33V54.3333H42.6667H43.6667V53.3333V43.6666H47V53.3333V54.3333H48ZM116.083 85.6719L110.27 44.8192C110.27 44.8192 110.27 44.8191 110.27 44.8191C108.706 33.8171 99.2687 25.6666 88.16 25.6666H39.84C28.7312 25.6666 19.2938 33.8171 17.73 44.8191C17.73 44.8191 17.7299 44.8192 17.7299 44.8192L11.9167 85.6719C10.6574 94.4871 17.4709 102.333 26.3467 102.333C30.2431 102.333 33.9093 100.785 36.6535 98.0407C36.6536 98.0406 36.6537 98.0405 36.6538 98.0404L48.4129 86.3333H79.5858L91.2929 98.0404C94.0386 100.786 97.7589 102.333 101.6 102.333C110.526 102.333 117.343 94.4898 116.083 85.6719ZM80 52.3333C77.6189 52.3333 75.6667 50.381 75.6667 48C75.6667 45.6189 77.6189 43.6666 80 43.6666C82.381 43.6666 84.3333 45.6189 84.3333 48C84.3333 50.381 82.381 52.3333 80 52.3333ZM90.6667 68.3333C88.2856 68.3333 86.3333 66.381 86.3333 64C86.3333 61.6189 88.2856 59.6666 90.6667 59.6666C93.0477 59.6666 95 61.6189 95 64C95 66.381 93.0477 68.3333 90.6667 68.3333Z" stroke="#F2F2F2" stroke-width="2"/>
</g>
<defs>
<filter id="filter0_d" x="6.7662" y="24.6666" width="114.468" height="86.6667" filterUnits="userSpaceOnUse" color-interpolation-filters="sRGB">
<feFlood flood-opacity="0" result="BackgroundImageFix"/>
<feColorMatrix in="SourceAlpha" type="matrix" values="0 0 0 0 0 0 0 0 0 0 0 0 0 0 0 0 0 0 127 0"/>
<feOffset dy="4"/>
<feGaussianBlur stdDeviation="2"/>
<feColorMatrix type="matrix" values="0 0 0 0 0 0 0 0 0 0 0 0 0 0 0 0 0 0 0.25 0"/>
<feBlend mode="normal" in2="BackgroundImageFix" result="effect1_dropShadow"/>
<feBlend mode="normal" in="SourceGraphic" in2="effect1_dropShadow" result="shape"/>
</filter>
</defs>
</svg>
